<svg id="line" height="512" viewBox="0 0 64 64" width="512" xmlns="http://www.w3.org/2000/svg"><path d="m58.00668 33.26886a1.00013 1.00013 0 0 0 -.40029-.80008l-3.53128-2.64529a.99858.99858 0 0 0 -.59945-.19965h-6.93566v-16.90125a1.00015 1.00015 0 0 0 -.29289-.70733l-7.71479-7.705a.948.948 0 0 0 -.65028-.2835c-.05449-.07108-28.919.02649-28.98146-.01189a2.933 2.933 0 0 0 -2.92981 2.92948v50.12626a2.93279 2.93279 0 0 0 2.92988 2.92939h34.71046a2.93258 2.93258 0 0 0 2.92889-2.92939v-2.48829c7.45932-3.28642 11.8442-13.77385 11.46668-21.31346zm-19.18336-25.84161 4.30562 4.3h-3.37715a.92968.92968 0 0 1 -.92847-.92846zm5.71723 49.64336a.942.942 0 0 1 -.92944.92992h-34.71046a.94222.94222 0 0 1 -.93041-.92992v-50.12626a.94223.94223 0 0 1 .93041-.92993h27.92321v4.78437a2.93113 2.93113 0 0 0 2.92793 2.92793h4.78876v15.89712h-6.94444a1.00187 1.00187 0 0 0 -.60042.20014l-3.53129 2.64968a.99752.99752 0 0 0 -.39741.74547c-.37692 7.59239 4.00741 18.08387 11.47356 21.36648zm.99582-4.17418c-6.61389-2.864-10.66743-12.102-10.49133-19.10867l2.884-2.16446c3.80538.00153 11.40949-.00109 15.21371 0l2.884 2.16056c.1784 7.00614-3.87441 16.2459-10.49038 19.11257z"/><path d="m50.02346 37.13111-5.64107 5.64107-2.468-2.46705a.99981.99981 0 0 0 -1.41375 1.41362l3.17493 3.174a.99938.99938 0 0 0 1.41369 0l6.34791-6.34792a.99982.99982 0 0 0 -1.41371-1.41372z"/><path d="m14.2586 21.01042h19.99466a.99993.99993 0 0 0 -.00007-1.99947h-19.99459a.99993.99993 0 0 0 0 1.99947z"/><path d="m14.2586 29.00828h15.99572a.99993.99993 0 0 0 -.00006-1.99947h-15.99566a.99993.99993 0 0 0 0 1.99947z"/><path d="m14.2586 37.00614h11.99679a.99973.99973 0 1 0 0-1.99946h-11.99679a.99992.99992 0 0 0 0 1.99946z"/><path d="m14.2586 45.004h11.99679a.99974.99974 0 1 0 0-1.99947h-11.99679a.99993.99993 0 0 0 0 1.99947z"/><path d="m34.25326 51.0024h-19.99466a.99993.99993 0 0 0 .00006 1.99947h19.9946a.99993.99993 0 0 0 0-1.99947z"/></svg>